<?xml version="1.0" encoding="iso-8859-1"?>
<!-- Generator: Adobe Illustrator 19.0.0, SVG Export Plug-In . SVG Version: 6.00 Build 0)  -->
<svg version="1.1" id="Capa_1" xmlns="http://www.w3.org/2000/svg" xmlns:xlink="http://www.w3.org/1999/xlink" x="0px" y="0px"
	 viewBox="0 0 511.997 511.997" style="enable-background:new 0 0 511.997 511.997;" xml:space="preserve">
<path style="fill:#78B9EB;" d="M405.204,111.672c-11.699-0.034-23.313,1.964-34.329,5.892c0.085-1.964,0.171-3.928,0.171-5.892
	c0-47.813-33.057-89.273-79.674-99.913c-1.793-0.427-3.672-0.769-5.551-1.025c-2.647-0.512-5.295-0.854-8.027-1.11
	c-3.074-0.256-6.148-0.427-9.223-0.427c-27.566-0.034-53.979,11.05-73.27,30.743c-6.49,6.55-12.015,13.996-16.396,22.118
	c-0.111,0.248-0.256,0.478-0.427,0.683v0.085c-3.493,6.336-6.268,13.031-8.283,19.983c-1.699,5.892-2.869,11.921-3.501,18.019
	c-0.418,3.604-0.615,7.224-0.598,10.845c-0.017,4.458,0.265,8.907,0.854,13.322c-8.454-3.211-17.429-4.825-26.473-4.782
	c-11.469,0.009-22.784,2.57-33.134,7.515c-3.339,1.631-6.558,3.484-9.65,5.551c-1.827,1.187-3.57,2.494-5.209,3.928
	c-2.912,2.297-5.653,4.816-8.198,7.515c-2.459,2.587-4.714,5.354-6.746,8.283c-6.08,8.634-10.29,18.428-12.382,28.778
	c-4.936,1.144-9.727,2.861-14.261,5.124c-5.559,2.707-10.734,6.157-15.371,10.248c-3.313,2.869-6.319,6.072-8.967,9.564
	c-22.997,29.863-17.438,72.723,12.434,95.729c11.955,9.206,26.618,14.193,41.707,14.176h324.505c2.903,0,5.721-0.085,8.54-0.342
	c56.404-4.62,98.393-54.081,93.773-110.494C503.162,152.543,458.628,111.578,405.204,111.672z"/>
<g>
	<path style="fill:#231F20;" d="M401.361,325.162c-4.714,0-8.54-3.826-8.54-8.54s3.826-8.54,8.54-8.54
		c2.63,0,5.192-0.077,7.754-0.307c51.707-4.193,90.229-49.513,86.036-101.22c-3.962-48.838-44.79-86.429-93.79-86.344
		c-10.709-0.034-21.349,1.785-31.434,5.388c-4.441,1.597-9.334-0.7-10.931-5.141c-0.376-1.042-0.547-2.143-0.495-3.254
		c0.077-1.862,0.162-3.689,0.162-5.534c-0.214-43.748-30.418-81.63-73.014-91.587c-1.614-0.384-3.219-0.675-4.825-0.897
		c-2.827-0.529-5.209-0.854-7.686-1.067c-2.741-0.222-5.576-0.384-8.412-0.384c-25.286-0.077-49.521,10.085-67.181,28.181
		c-5.918,5.978-10.956,12.767-14.961,20.171l0,0l-0.29,0.529c-0.051,0.111-0.12,0.239-0.188,0.359
		c-3.185,5.781-5.722,11.887-7.558,18.223c-1.563,5.414-2.639,10.956-3.211,16.567c-0.384,3.288-0.564,6.593-0.547,9.906
		c-0.017,4.065,0.239,8.121,0.777,12.152c0.649,4.671-2.622,8.984-7.293,9.624c-1.435,0.196-2.886,0.026-4.236-0.487
		c-17.241-6.311-36.302-5.423-52.877,2.476c-2.955,1.46-5.807,3.108-8.54,4.944c-1.494,0.965-2.921,2.032-4.27,3.194
		c-2.733,2.135-5.303,4.466-7.686,6.985c-2.186,2.297-4.184,4.757-5.978,7.37c-5.38,7.677-9.129,16.37-11.008,25.55
		c-0.658,3.254-3.134,5.833-6.362,6.61c-4.295,0.974-8.463,2.459-12.399,4.424c-4.91,2.383-9.47,5.423-13.569,9.026
		c-2.895,2.494-5.517,5.277-7.822,8.318c-8.096,10.427-12.476,23.253-12.451,36.447c0.034,32.997,26.78,59.743,59.777,59.777
		c4.714,0,8.54,3.826,8.54,8.54s-3.826,8.54-8.54,8.54C34.432,325.111,0.051,290.73,0,248.306
		c-0.043-16.943,5.568-33.415,15.952-46.797c2.98-3.937,6.362-7.558,10.094-10.794c5.192-4.577,10.982-8.429,17.199-11.469
		c3.527-1.776,7.199-3.237,10.982-4.381c2.579-9.599,6.823-18.676,12.536-26.806c2.28-3.288,4.816-6.396,7.583-9.291
		c2.801-2.98,5.824-5.739,9.035-8.266c1.819-1.588,3.757-3.04,5.781-4.355c3.407-2.263,6.951-4.304,10.623-6.114
		c16.806-7.976,35.738-10.316,53.979-6.669c0-0.564,0-1.136,0-1.708c-0.017-3.971,0.205-7.933,0.666-11.879
		c0.675-6.567,1.947-13.057,3.783-19.393c2.118-7.31,5.021-14.372,8.651-21.067c0.196-0.461,0.436-0.914,0.717-1.332l0.068-0.094
		l0,0c4.748-8.779,10.717-16.832,17.728-23.928c23.339-23.774,56.105-35.824,89.29-32.843c3.091,0.29,5.978,0.666,8.924,1.221
		c1.708,0.231,3.851,0.623,5.901,1.11c48.309,11.315,83.381,53.125,86.105,102.672c59.692-14.005,119.435,23.023,133.44,82.715
		c14.005,59.692-23.023,119.435-82.715,133.44c-5.166,1.213-10.418,2.058-15.713,2.519
		C407.604,325.068,404.529,325.162,401.361,325.162z"/>
	<path style="fill:#231F20;" d="M353.164,511.325c-4.714,0.009-8.548-3.809-8.548-8.531c0-2.553,1.136-4.979,3.108-6.601
		c47.292-39.017,54.004-108.982,14.987-156.283c-21.084-25.55-52.476-40.358-85.601-40.367H97.779c-4.714,0-8.54-3.826-8.54-8.54
		s3.826-8.54,8.54-8.54H277.11c70.742,0,128.094,57.343,128.094,128.094c0,38.257-17.096,74.508-46.609,98.837
		C357.066,510.651,355.145,511.334,353.164,511.325z"/>
	<path style="fill:#231F20;" d="M277.11,316.622H131.937c-4.714,0-8.54,3.826-8.54,8.54c0,4.714,3.826,8.54,8.54,8.54H277.11
		c42.45,0.017,76.848,34.44,76.831,76.882c-0.009,14.722-4.244,29.137-12.203,41.528c-2.656,3.894-1.648,9.206,2.246,11.87
		c3.894,2.656,9.206,1.648,11.87-2.246c0.077-0.12,0.162-0.239,0.231-0.359c28.061-43.637,15.44-101.758-28.198-129.819
		C312.746,321.815,295.12,316.631,277.11,316.622z"/>
</g>
<g>
	<path style="fill:#006DF0;" d="M277.11,350.781H166.095c-4.714,0-8.54,3.826-8.54,8.54c0,4.714,3.826,8.54,8.54,8.54H277.11
		c23.569,0.026,42.672,19.129,42.698,42.698c0,4.714,3.826,8.54,8.54,8.54c4.714,0,8.54-3.826,8.54-8.54
		C336.845,377.561,310.107,350.824,277.11,350.781z"/>
	<path style="fill:#006DF0;" d="M294.189,410.558c-4.714,0-8.54,3.826-8.54,8.54c0,9.436-7.643,17.079-17.079,17.079
		s-17.079-7.643-17.079-17.079s7.643-17.079,17.079-17.079c4.714,0,8.54-3.826,8.54-8.54s-3.826-8.54-8.54-8.54
		c-18.864,0-34.158,15.294-34.158,34.158c0,18.864,15.294,34.158,34.158,34.158s34.158-15.294,34.158-34.158
		C302.729,414.384,298.903,410.558,294.189,410.558z"/>
</g>
<path style="fill:#231F20;" d="M277.11,265.385H131.937c-4.714,0-8.54-3.826-8.54-8.54c0-4.714,3.826-8.54,8.54-8.54H277.11
	c23.578,0,42.698-19.12,42.698-42.698s-19.12-42.698-42.698-42.698c-4.714,0-8.54-3.826-8.54-8.54c0-4.714,3.826-8.54,8.54-8.54
	c33.014,0,59.777,26.763,59.777,59.777S310.124,265.385,277.11,265.385z"/>
<path style="fill:#006DF0;" d="M277.11,231.227c-14.15,0-25.619-11.469-25.619-25.619s11.469-25.619,25.619-25.619
	s25.619,11.469,25.619,25.619c0,4.714-3.826,8.54-8.54,8.54c-4.714,0-8.54-3.826-8.54-8.54s-3.826-8.54-8.54-8.54
	c-4.714,0-8.54,3.826-8.54,8.54s3.826,8.54,8.54,8.54c4.714,0,8.54,3.826,8.54,8.54S281.824,231.227,277.11,231.227z"/>
<g>
</g>
<g>
</g>
<g>
</g>
<g>
</g>
<g>
</g>
<g>
</g>
<g>
</g>
<g>
</g>
<g>
</g>
<g>
</g>
<g>
</g>
<g>
</g>
<g>
</g>
<g>
</g>
<g>
</g>
</svg>
